<svg version="1.1" id="Layer_1" xmlns="http://www.w3.org/2000/svg" xmlns:xlink="http://www.w3.org/1999/xlink" x="0px" y="0px"
	 width="100%" viewBox="0 0 948 1148" enable-background="new 0 0 948 1148" xml:space="preserve">
<path fill="#FFFFFF" opacity="1.000000" stroke="none" 
	d="
M949.000000,415.000000 
	C949.000000,660.000000 949.000000,904.500000 949.000000,1149.000000 
	C633.000000,1149.000000 317.000000,1149.000000 1.000000,1149.000000 
	C1.000000,766.333313 1.000000,383.666656 1.000000,1.000000 
	C317.000000,1.000000 633.000000,1.000000 949.000000,1.000000 
	C949.000000,138.833328 949.000000,276.666656 949.000000,415.000000 
M879.536011,719.075134 
	C883.917419,705.822754 888.639832,692.671936 892.621155,679.300354 
	C909.884888,621.319153 918.187012,562.002441 918.237549,501.539124 
	C918.315613,408.053284 918.197327,314.567139 918.411011,221.081711 
	C918.423706,215.541199 916.789490,213.828018 911.572144,212.934982 
	C864.160950,204.819794 817.411499,193.872849 771.532166,179.344101 
	C707.688110,159.126358 646.432617,132.984940 588.258362,99.680550 
	C549.639587,77.571495 513.077515,52.568806 479.238586,23.647036 
	C476.551239,21.350178 474.460297,21.313934 471.889191,23.553902 
	C467.881165,27.045752 463.766144,30.415995 459.663849,33.798233 
	C421.502686,65.261177 379.790222,91.360420 336.225677,114.496361 
	C303.207489,132.031418 269.007507,147.027206 234.033798,160.355469 
	C187.283508,178.171738 139.459702,192.207108 90.643494,202.929749 
	C71.569473,207.119431 52.355499,210.671875 32.925289,214.570770 
	C32.925289,216.605392 32.924297,218.586273 32.925434,220.567139 
	C32.979366,314.551056 32.984116,408.535034 33.112495,502.518860 
	C33.162140,538.861328 36.378330,574.913269 42.666672,610.751770 
	C53.340408,671.583374 72.622955,729.502075 100.496773,784.541138 
	C119.857216,822.769836 142.746979,858.818298 168.816864,892.859192 
	C201.838730,935.978027 239.207336,974.956299 280.667480,1009.955933 
	C310.101562,1034.803345 341.287689,1057.302002 373.990967,1077.734131 
	C402.756500,1095.706055 432.547943,1111.695068 463.411041,1125.682251 
	C469.087677,1128.255005 474.300720,1132.053589 481.934174,1128.605835 
	C518.998291,1111.865112 554.634460,1092.608765 588.705811,1070.432983 
	C642.776794,1035.239990 692.431702,994.756958 736.388733,947.402771 
	C759.823914,922.156433 782.010742,895.845398 801.045959,867.159424 
	C816.795898,843.424377 832.239868,819.323303 845.565002,794.189270 
	C858.289307,770.188416 868.102295,744.644165 879.536011,719.075134 
z"/>
<path fill="#000000" opacity="1.000000" stroke="none" 
	d="
M879.365540,719.426758 
	C868.102295,744.644165 858.289307,770.188416 845.565002,794.189270 
	C832.239868,819.323303 816.795898,843.424377 801.045959,867.159424 
	C782.010742,895.845398 759.823914,922.156433 736.388733,947.402771 
	C692.431702,994.756958 642.776794,1035.239990 588.705811,1070.432983 
	C554.634460,1092.608765 518.998291,1111.865112 481.934174,1128.605835 
	C474.300720,1132.053589 469.087677,1128.255005 463.411041,1125.682251 
	C432.547943,1111.695068 402.756500,1095.706055 373.990967,1077.734131 
	C341.287689,1057.302002 310.101562,1034.803345 280.667480,1009.955933 
	C239.207336,974.956299 201.838730,935.978027 168.816864,892.859192 
	C142.746979,858.818298 119.857216,822.769836 100.496773,784.541138 
	C72.622955,729.502075 53.340408,671.583374 42.666672,610.751770 
	C36.378330,574.913269 33.162140,538.861328 33.112495,502.518860 
	C32.984116,408.535034 32.979366,314.551056 32.925434,220.567139 
	C32.924297,218.586273 32.925289,216.605392 32.925289,214.570770 
	C52.355499,210.671875 71.569473,207.119431 90.643494,202.929749 
	C139.459702,192.207108 187.283508,178.171738 234.033798,160.355469 
	C269.007507,147.027206 303.207489,132.031418 336.225677,114.496361 
	C379.790222,91.360420 421.502686,65.261177 459.663849,33.798233 
	C463.766144,30.415995 467.881165,27.045752 471.889191,23.553902 
	C474.460297,21.313934 476.551239,21.350178 479.238586,23.647036 
	C513.077515,52.568806 549.639587,77.571495 588.258362,99.680550 
	C646.432617,132.984940 707.688110,159.126358 771.532166,179.344101 
	C817.411499,193.872849 864.160950,204.819794 911.572144,212.934982 
	C916.789490,213.828018 918.423706,215.541199 918.411011,221.081711 
	C918.197327,314.567139 918.315613,408.053284 918.237549,501.539124 
	C918.187012,562.002441 909.884888,621.319153 892.621155,679.300354 
	C888.639832,692.671936 883.917419,705.822754 879.365540,719.426758 
M473.575867,84.781189 
	C357.041870,172.976807 224.782700,225.233292 82.334114,255.550247 
	C82.334114,273.154541 82.362419,290.626221 82.328201,308.097748 
	C82.258057,343.909698 82.039391,379.721741 82.098145,415.533417 
	C82.152496,448.656555 82.582565,481.778931 82.671387,514.902100 
	C82.740303,540.601196 85.161224,566.100525 89.266068,591.417114 
	C96.846611,638.170105 109.615654,683.407471 128.449997,726.993164 
	C143.481308,761.778015 161.302902,794.970520 182.129700,826.547852 
	C210.098770,868.954346 242.860474,907.361267 279.565735,942.484863 
	C302.802643,964.720398 327.201782,985.567749 353.140656,1004.515198 
	C387.604767,1029.689941 423.807281,1052.114624 462.256042,1070.800781 
	C475.802643,1077.384521 475.746582,1077.524414 489.081451,1070.841431 
	C526.488892,1052.094116 562.245117,1030.641357 596.041809,1005.926392 
	C640.286133,973.571106 680.628052,936.941345 716.612854,895.607788 
	C745.012390,862.986938 770.098022,827.962769 791.499634,790.315369 
	C814.347839,750.123413 832.510681,707.979309 845.635010,663.631470 
	C861.433533,610.247192 869.100037,555.732056 869.091125,500.095123 
	C869.078369,420.274689 869.087952,340.454285 869.087952,260.633850 
	C869.087952,258.859131 869.087952,257.084381 869.087952,256.076660 
	C841.166626,249.107315 813.897766,242.932281 786.995422,235.441101 
	C744.226807,223.531815 702.518127,208.505829 661.710022,190.934631 
	C628.871826,176.795059 596.942566,160.897339 565.855957,143.281082 
	C535.695557,126.189720 506.674072,107.366341 479.302734,86.041794 
	C477.953522,84.990631 475.887817,84.859100 473.575867,84.781189 
z"/>
<path fill="#FFFFFF" opacity="1.000000" stroke="none" 
	d="
M473.865784,84.540283 
	C475.887817,84.859100 477.953522,84.990631 479.302734,86.041794 
	C506.674072,107.366341 535.695557,126.189720 565.855957,143.281082 
	C596.942566,160.897339 628.871826,176.795059 661.710022,190.934631 
	C702.518127,208.505829 744.226807,223.531815 786.995422,235.441101 
	C813.897766,242.932281 841.166626,249.107315 869.087952,256.076660 
	C869.087952,257.084381 869.087952,258.859131 869.087952,260.633850 
	C869.087952,340.454285 869.078369,420.274689 869.091125,500.095123 
	C869.100037,555.732056 861.433533,610.247192 845.635010,663.631470 
	C832.510681,707.979309 814.347839,750.123413 791.499634,790.315369 
	C770.098022,827.962769 745.012390,862.986938 716.612854,895.607788 
	C680.628052,936.941345 640.286133,973.571106 596.041809,1005.926392 
	C562.245117,1030.641357 526.488892,1052.094116 489.081451,1070.841431 
	C475.746582,1077.524414 475.802643,1077.384521 462.256042,1070.800781 
	C423.807281,1052.114624 387.604767,1029.689941 353.140656,1004.515198 
	C327.201782,985.567749 302.802643,964.720398 279.565735,942.484863 
	C242.860474,907.361267 210.098770,868.954346 182.129700,826.547852 
	C161.302902,794.970520 143.481308,761.778015 128.449997,726.993164 
	C109.615654,683.407471 96.846611,638.170105 89.266068,591.417114 
	C85.161224,566.100525 82.740303,540.601196 82.671387,514.902100 
	C82.582565,481.778931 82.152496,448.656555 82.098145,415.533417 
	C82.039391,379.721741 82.258057,343.909698 82.328201,308.097748 
	C82.362419,290.626221 82.334114,273.154541 82.334114,255.550247 
	C224.782700,225.233292 357.041870,172.976807 473.865784,84.540283 
M475.886353,1031.719482 
	C476.471771,1031.545288 477.057159,1031.371094 478.316406,1031.174683 
	C487.106689,1026.456299 496.039703,1021.983948 504.664734,1016.980652 
	C575.970337,975.617798 639.382690,924.616394 692.799927,861.632385 
	C720.889832,828.511719 745.269897,792.759583 765.448120,754.267944 
	C789.989807,707.452881 808.285950,658.330688 818.715210,606.411682 
	C820.638123,596.838745 822.237183,587.200745 824.086060,577.041443 
	C821.309753,577.041443 819.332825,577.041443 817.355896,577.041443 
	C705.535889,577.041443 593.715881,577.043213 481.895905,577.025818 
	C480.087341,577.025513 478.278809,576.790222 475.885406,575.953186 
	C475.838593,574.456238 475.751587,572.959229 475.750641,571.462280 
	C475.660461,427.660461 475.576752,283.858643 475.492859,140.056808 
	C475.491730,138.130478 475.492737,136.204163 475.492737,133.686996 
	C463.959198,141.502502 453.238892,149.036728 442.253632,156.162567 
	C402.246887,182.113937 360.130432,204.275040 316.423584,223.144592 
	C284.940063,236.736969 252.904526,249.270615 220.454865,260.340912 
	C190.496506,270.561249 159.703018,278.363678 129.164612,286.824097 
	C124.118843,288.222015 122.493210,289.913116 122.512787,295.301758 
	C122.742889,358.622772 122.453178,421.945984 122.769501,485.266266 
	C122.885033,508.391571 124.103729,531.516846 125.118896,554.628967 
	C125.444328,562.037964 126.732407,569.404724 127.638565,577.300598 
	C132.049179,577.300598 136.031647,577.300659 140.014099,577.300659 
	C250.827377,577.300720 361.640656,577.303406 472.453918,577.270813 
	C473.845581,577.270386 475.237152,576.818542 475.695923,577.157227 
	C475.627441,578.484070 475.499084,579.810852 475.499023,581.137695 
	C475.490967,729.611084 475.491364,878.084473 475.508667,1026.557861 
	C475.508850,1028.038208 475.738739,1029.518433 475.886353,1031.719482 
z"/>
<path fill="#000000" opacity="1.000000" stroke="none" 
	d="
M476.628754,576.577454 
	C475.237152,576.818542 473.845581,577.270386 472.453918,577.270813 
	C361.640656,577.303406 250.827377,577.300720 140.014099,577.300659 
	C136.031647,577.300659 132.049179,577.300598 127.638565,577.300598 
	C126.732407,569.404724 125.444328,562.037964 125.118896,554.628967 
	C124.103729,531.516846 122.885033,508.391571 122.769501,485.266266 
	C122.453178,421.945984 122.742889,358.622772 122.512787,295.301758 
	C122.493210,289.913116 124.118843,288.222015 129.164612,286.824097 
	C159.703018,278.363678 190.496506,270.561249 220.454865,260.340912 
	C252.904526,249.270615 284.940063,236.736969 316.423584,223.144592 
	C360.130432,204.275040 402.246887,182.113937 442.253632,156.162567 
	C453.238892,149.036728 463.959198,141.502502 475.492737,133.686996 
	C475.492737,136.204163 475.491730,138.130478 475.492859,140.056808 
	C475.576752,283.858643 475.660461,427.660461 475.750641,571.462280 
	C475.751587,572.959229 475.838593,574.456238 476.215149,576.282837 
	C476.544861,576.612549 476.628754,576.577454 476.628754,576.577454 
z"/>
<path fill="#000000" opacity="1.000000" stroke="none" 
	d="
M476.507568,576.638550 
	C478.278809,576.790222 480.087341,577.025513 481.895905,577.025818 
	C593.715881,577.043213 705.535889,577.041443 817.355896,577.041443 
	C819.332825,577.041443 821.309753,577.041443 824.086060,577.041443 
	C822.237183,587.200745 820.638123,596.838745 818.715210,606.411682 
	C808.285950,658.330688 789.989807,707.452881 765.448120,754.267944 
	C745.269897,792.759583 720.889832,828.511719 692.799927,861.632385 
	C639.382690,924.616394 575.970337,975.617798 504.664734,1016.980652 
	C496.039703,1021.983948 487.106689,1026.456299 477.535156,1031.121582 
	C476.456390,1031.045166 476.158905,1031.021973 475.861389,1030.998779 
	C475.738739,1029.518433 475.508850,1028.038208 475.508667,1026.557861 
	C475.491364,878.084473 475.490967,729.611084 475.499023,581.137695 
	C475.499084,579.810852 475.627441,578.484070 476.162354,576.867310 
	C476.628754,576.577454 476.544861,576.612549 476.507568,576.638550 
z"/>
</svg>
